<svg xmlns="http://www.w3.org/2000/svg" viewBox="0 0 3053.6 1051.6"><path class="text" d="M917.5 660.8c-.5-.3-.5-7-.5-131.4 0-72 0-131.3.2-131.5.2-1 10-1 109-1H1139c23.2 2 37 10 43 28 1 4 1.2 6 2 11 .4 2 .4 7 .5 38v40c-1.6 19-8.5 31-21.6 37-6 2-12 4-20 5H961v51c0 45 0 50-1 51h-44zm203.5-138c12.4-2.2 17-7 19-19 .5-3.8.6-48 0-51.8-1-7.6-3.5-12.3-7.4-15-2.3-1.8-3-2.2-6-3-6-2 .5-2-86.4-2h-78.8v91.4h78.8c58.7-.2 79.4-.3 80.8-.6zm75 138c-.6-.3-.6-5-.6-92.3v-92h.7c1 0 8-.2 16 0h15V514l1 37.3h144V514l1-37.6h30l1 .2v184.2c0 .3-28 .4-29 0h-.3v-83.2h-145v83l-.2.3c-1 0-29 0-29.3-1zm305.6 0c-.5-.3-.5-2.6-.5-40.3v-40l-46-51.7c-25-28.4-46-51.8-46-52 0-.3 5-.4 19-.4h19l1 .6 36 41 36 40 1-1 34-40c18-21.6 34-39.6 34-40l1-1h19c17 0 19 0 19 .6 0 .3-20.2 23.6-46 51.7l-46 51v81.3c0 .4-2 .5-15 .5h-16zm156.4 0c-11.2-.8-19.7-3.3-25-7.5-5.8-4.7-9.2-13-10.4-26-.3-4-.4-15 0-15.2.7 0 28-6 28.3-6v29h136v-54h-63c-57 0-63 0-66-1-16-2-23-7-27-19-2-7-3-12-3-28 0-22 1-31 5-39 2-5 5-8 10-10 2-1 7-3 11-3 6-1 6-1 66-1 54 0 57 0 61 .7 11 1.4 19 5 24 11 4 5 6 12.3 7 23 0 6 0 9.6-1 10l-26 7c-1 0-1-1.5-1-13v-13h-130v51h63c48 0 63 0 65 .5 12 1.8 18 4.5 23 10 1 2 4 7.3 5 11 1 3.8 2 8.7 2 14.4.5 6 .2 37 0 41-2.8 21-9.7 28-30.5 31-3 .4-9.4.4-63.3.5-33 0-61.6 0-63.7-.4zm198 0c-.6-.3-.6-5-.6-92.3v-92h.7c1 0 8-.2 16 0h15V661c-1 0-29 0-29-1zm100.2 0c-11.2-.8-19.7-3.3-25-7.5-5.8-4.7-9.2-13-10.4-26-.3-4-.4-15 0-15.2.7 0 28-6 28.3-6 1 0 1 7 1 15v14h136c1 0 1-54 0-54h-63c-57 0-63 0-66-1-15-2-22-7-26-19-2-7-3-12-3-28 0-22 1-32 5-40 3-5 6-8 10-10 2-1 7-2 11-3 7-1 6-1 67-1 54 0 57 0 61 1 12 1.7 20 5 24 11 4 5 6 12.6 7 23v10c-1 .8-25 7.6-26 7v-26h-130l1 25.7v25h63c48 0 64 .4 65 .7 12 2 18 4.5 23 10 2 2 4 7.3 6 11 1 4 2 9 2 14.4 1 6 .7 36.6 0 40.4-2.5 21-9.4 28.4-30.2 31-3 .7-9.6.7-63.5.8h-64zm367.8 0c-9.7-.5-18.2-2-25-4.2-3.5-1.2-9.5-4.4-12-6.4-7.2-5.7-12-15.7-14-30l-1-74.2c.4-.4 41.7-9.2 42.5-9h.7l.3 86.7 140.5.2.3-226c44 0 0 0 43.8-1h1v216c-2 19-7 30-15 36s-20 9-37 10h-123zm212.6 0l-.5-184.2 1-.2c165 2 0 .2 165 2 6 1.5 10 3.6 14 7.2 4 3.8 6 8 8 14l1 63.3c-2 14-9 21-24 25-5 1-8 1-24 1h-16l83 71h-46l-75-72h-54v71h-31zm145-96.7c6-1 8.7-4 10-10l-1-45c-2-4-6.2-6-13.4-7h-110v63h114.3zm99.3 97c-3 0-5-1-6-3-2-3-2-5-2-26v-21c1-6 3-6 27-6s26 1 27 6v21c0 21 0 23-1 26-2 4-5 4-30 4h-19z"/><path class="red part" d="M0 526l345.6-346 257.7 258L437 604.4l-.3-79.3h-17.4v177h17.4l.5-79 259.2 259-170.6 170z"/><path class="grey part" d="M449 613.2L614 448l.6 78.8 17.2-.2V350h-17.3l-.5 78.2-258-258L525.7 0l358.8 359v333.5l-178 177.8zm2438.4-83.9c0-110.8 0-166 .3-166 .7.3 166 165.4 166 165.8 0 1-165.6 167-166 167-.2 0-.3-74-.3-166z"/></svg>